Coordinates
version=1
nRows=14
nColumns=24
inDegrees=yes

Units are S.I. units (second, meters, Newtons, ...)
Angles are in degrees.

endheader
time	pelvis_tilt	pelvis_list	pelvis_rotation	pelvis_tx	pelvis_ty	pelvis_tz	hip_flexion_r	hip_adduction_r	hip_rotation_r	knee_angle_r	ankle_angle_r	subtalar_angle_r	mtp_angle_r	hip_flexion_l	hip_adduction_l	hip_rotation_l	knee_angle_l	ankle_angle_l	subtalar_angle_l	mtp_angle_l	lumbar_extension	lumbar_bending	lumbar_rotation
      1.94000000	     60.61447186	      4.67865587	      8.96717078	      0.77213340	      1.08391292	     -0.27473906	     -2.61121110	    -11.97291649	     -3.65344118	    -52.96664069	    -16.65111229	      1.12171466	     50.84804843	     16.24502062	    -13.41045507	     15.77646182	    -15.00579417	    -20.35049837	     11.88054584	    -34.82434481	      0.00000000	      0.00000000	      0.00000000
      1.95000000	     60.62149567	      4.68092582	      8.96777369	      0.77212080	      1.08391832	     -0.27474147	     -2.62068754	    -11.97433260	     -3.65696060	    -52.96471065	    -16.65185233	      1.12184573	     50.86073115	     16.23567139	    -13.40850126	     15.77503607	    -15.00488223	    -20.34967029	     11.87468984	    -34.82549387	      0.00000000	      0.00000000	      0.00000000
      1.96000000	     60.63088930	      4.68454608	      8.96872710	      0.77211080	      1.08392676	     -0.27474891	     -2.63425978	    -11.97658894	     -3.66136478	    -52.96184272	    -16.65204946	      1.12326356	     50.87333630	     16.22363259	    -13.40519307	     15.77484299	    -15.00519335	    -20.34637374	     11.87131286	    -34.83256021	      0.00000000	      0.00000000	      0.00000000
      1.97000000	     60.64101021	      4.68859551	      8.96996212	      0.77211477	      1.08393619	     -0.27475802	     -2.64969737	    -11.97889456	     -3.66589120	    -52.95863560	    -16.65205874	      1.12571547	     50.88514533	     16.21067732	    -13.40095399	     15.77549792	    -15.00672918	    -20.34192582	     11.87167752	    -34.84490362	      0.00000000	      0.00000000	      0.00000000
      1.98000000	     60.65041310	      4.69229468	      8.97116750	      0.77212924	      1.08394673	     -0.27476243	     -2.66448984	    -11.98052730	     -3.66985406	    -52.95561110	    -16.65220684	      1.12870808	     50.89567071	     16.19862976	    -13.39654920	     15.77656969	    -15.00912768	    -20.33773211	     11.87606114	    -34.86165577	      0.00000000	      0.00000000	      0.00000000
      1.99000000	     60.65801095	      4.69518764	      8.97191599	      0.77213561	      1.08395763	     -0.27476190	     -2.67640447	    -11.98117590	     -3.67274432	    -52.95305251	    -16.65273800	      1.13169085	     50.90462064	     16.18895968	    -13.39308445	     15.77782016	    -15.01165716	    -20.33486425	     11.88369422	    -34.88179902	      0.00000000	      0.00000000	      0.00000000
      2.00000000	     60.66323966	      4.69695868	      8.97191754	      0.77212945	      1.08396374	     -0.27476195	     -2.68409262	    -11.98086453	     -3.67446245	    -52.95097933	    -16.65372490	      1.13425607	     50.91187566	     16.18220234	    -13.39125118	     15.77918298	    -15.01364221	    -20.33376224	     11.89303225	    -34.90429826	      0.00000000	      0.00000000	      0.00000000
      2.01000000	     60.66631979	      4.69733478	      8.97116580	      0.77212606	      1.08396119	     -0.27476346	     -2.68754158	    -11.97969127	     -3.67548486	    -52.94927762	    -16.65499598	      1.13627037	     50.91748948	     16.17782881	    -13.39068135	     15.78063007	    -15.01485678	    -20.33414397	     11.90222614	    -34.92822720	      0.00000000	      0.00000000	      0.00000000
      2.02000000	     60.66830449	      4.69644763	      8.96995733	      0.77212064	      1.08395687	     -0.27475990	     -2.68823502	    -11.97784579	     -3.67670093	    -52.94794484	    -16.65614881	      1.13788531	     50.92170385	     16.17472321	    -13.39042492	     15.78213360	    -15.01550797	    -20.33514138	     11.90960658	    -34.95283406	      0.00000000	      0.00000000	      0.00000000
      2.03000000	     60.67074471	      4.69527436	      8.96890714	      0.77209506	      1.08395913	     -0.27475156	     -2.68884531	    -11.97585598	     -3.67896867	    -52.94722881	    -16.65666533	      1.13944451	     50.92495735	     16.17156994	    -13.38998108	     15.78369669	    -15.01608021	    -20.33560813	     11.91411108	    -34.97754458	      0.00000000	      0.00000000	      0.00000000
      2.04000000	     60.67516545	      4.69516211	      8.96873110	      0.77206268	      1.08396513	     -0.27474773	     -2.69238715	    -11.97462352	     -3.68268748	    -52.94749099	    -16.65608951	      1.14134524	     50.92786418	     16.16701387	    -13.38939241	     15.78533925	    -15.01719213	    -20.33446591	     11.91563393	    -35.00192868	      0.00000000	      0.00000000	      0.00000000
      2.05000000	     60.68252968	      4.69678940	      8.96971218	      0.77205619	      1.08396733	     -0.27475116	     -2.70106794	    -11.97502500	     -3.68767527	    -52.94886127	    -16.65421050	      1.14391922	     50.93114770	     16.16000241	    -13.38861094	     15.78704495	    -15.01927746	    -20.33096917	     11.91509516	    -35.02562093	      0.00000000	      0.00000000	      0.00000000
      2.06000000	     60.69305444	      4.69995657	      8.97139392	      0.77208623	      1.08396665	     -0.27475625	     -2.71528839	    -11.97735695	     -3.69338059	    -52.95088930	    -16.65117486	      1.14736173	     50.93553299	     16.15024401	    -13.38741810	     15.78873551	    -15.02215106	    -20.32483439	     11.91405358	    -35.04819208	      0.00000000	      0.00000000	      0.00000000
      2.07000000	     60.70627096	      4.70408697	      8.97289486	      0.77212840	      1.08397330	     -0.27475887	     -2.73345329	    -11.98108727	     -3.69922311	    -52.95250992	    -16.64744900	      1.15168391	     50.94161946	     16.13822943	    -13.38576543	     15.79024145	    -15.02482177	    -20.31621724	     11.91406061	    -35.06904100	      0.00000000	      0.00000000	      0.00000000
